<svg width="62" height="65" viewBox="0 0 62 65" fill="none" xmlns="http://www.w3.org/2000/svg">
<g opacity="0.5">
<path opacity="0.5" d="M20.8651 9.74524L20.8106 9.77311C19.0292 10.708 17.4278 11.9518 16.0803 13.447C13.4854 16.2668 11.613 20.1326 10.6646 24.5666C9.76402 28.9259 9.74482 33.4249 10.6081 37.7977C11.01 39.8988 11.6418 41.9497 12.4922 43.9132C13.3179 45.8787 14.3962 47.7282 15.6999 49.4147C16.3576 50.26 17.0781 51.0544 17.8551 51.7911C18.6374 52.515 19.476 53.1753 20.3628 53.7657C22.1288 54.9375 24.0883 55.7844 26.149 56.2665C27.6182 56.5942 29.1143 56.7837 30.6177 56.8324C32.3284 56.9028 34.0415 56.8088 35.7332 56.5515C37.4494 56.3055 39.1417 55.9158 40.7921 55.3867C42.4357 54.8507 44.037 54.1934 45.583 53.4204L46.0887 53.1622C48.3381 52.0031 50.4767 50.6407 52.4782 49.092C53.5771 48.2508 54.6666 47.3344 55.7181 46.3792C56.7429 45.4871 57.6824 44.5009 58.5239 43.4335C58.6497 43.298 58.7398 43.1333 58.7862 42.9541C58.8208 42.8146 58.827 42.6694 58.8041 42.5273C58.7813 42.3852 58.7301 42.249 58.6536 42.127C58.6442 42.1016 58.6319 42.0774 58.6168 42.0549C58.8084 41.96 58.9661 41.8084 59.0687 41.6205C59.178 41.4203 59.2257 41.1919 59.2053 40.9641C59.185 40.7364 59.0979 40.5196 58.9548 40.3411C58.8116 40.1626 58.6191 40.0305 58.4014 39.9616C58.1838 39.8926 57.9509 39.8898 57.7321 39.9535C56.826 40.158 55.8896 40.367 54.9382 40.5182C52.9848 40.7806 51.0061 40.8043 49.0452 40.5887C46.905 40.3048 44.8055 39.7651 42.7916 38.9812C38.2993 37.1998 34.3323 34.2975 31.2681 30.5504C29.8815 28.8403 28.7103 26.9659 27.781 24.9698C27.0092 23.2038 26.4589 21.3493 26.1425 19.4489C25.9046 17.739 25.8716 16.0074 26.0441 14.2911C26.2121 12.9562 26.5013 11.6398 26.908 10.3584C26.9463 10.2333 26.9616 10.1023 26.9532 9.97158L27.0167 9.96825L27.0816 9.96057C27.2461 9.94697 27.4067 9.9032 27.5553 9.83142C27.6542 9.78321 27.7431 9.71682 27.8175 9.63569C27.9106 9.53762 27.9834 9.42201 28.0317 9.29551C28.08 9.16901 28.1028 9.03412 28.0988 8.89857C28.0949 8.76301 28.0643 8.62948 28.0088 8.50565C27.9533 8.38182 27.8739 8.27013 27.7753 8.17699C27.6803 8.08304 27.5673 8.00927 27.4433 7.96012C27.3192 7.91096 27.1866 7.88744 27.0534 7.89097C25.9417 8.01938 24.8429 8.23988 23.7681 8.55019C22.7704 8.85583 21.8021 9.25042 20.8751 9.72925L20.8651 9.74524ZM23.2715 15.6777L23.1621 15.5627C22.7663 15.1606 22.3317 14.799 21.8647 14.4831C21.1872 13.9961 20.3721 13.7403 19.5399 13.7535C19.1892 13.7678 18.8439 13.8421 18.5185 13.9732C18.8146 13.702 19.0864 13.454 19.3584 13.2278C20.2167 12.5438 21.1424 11.9493 22.1213 11.4533C22.3137 11.3551 22.5062 11.2568 22.6958 11.16C23.1444 10.9673 23.5974 10.7978 24.045 10.6529C23.5971 12.2931 23.338 13.98 23.273 15.6806L23.2715 15.6777ZM21.2339 19.4896L21.0817 19.5673C20.8295 19.6698 20.569 19.7505 20.3031 19.8085C20.184 19.8187 20.0644 19.8214 19.945 19.8168C19.8864 19.8059 19.8285 19.7918 19.7713 19.7745L19.661 19.7145C19.6166 19.6765 19.5744 19.6362 19.5342 19.5938C19.4855 19.4986 19.4198 19.4122 19.3667 19.3156C19.3012 19.1319 19.2477 18.9442 19.2065 18.7536C19.1784 18.4741 19.1741 18.1928 19.1937 17.9128C19.2283 17.695 19.2812 17.4806 19.3518 17.2719C19.4029 17.1609 19.4601 17.0527 19.5232 16.948L19.6303 16.8315L19.6705 16.8109L19.7513 16.806C19.8179 16.823 19.8874 16.8384 19.9541 16.8626C20.128 16.9415 20.2959 17.0332 20.4564 17.137C20.8987 17.4958 21.3043 17.8979 21.6669 18.3374C21.7386 18.4281 21.8103 18.5188 21.8717 18.5965C21.9605 18.7159 22.0598 18.8271 22.1683 18.9289C21.8426 19.1352 21.5354 19.3138 21.228 19.4708L21.2339 19.4896ZM22.578 21.9019C22.6556 21.8623 22.736 21.8212 22.8136 21.7816C23.1361 21.5806 23.4449 21.3585 23.7381 21.1168C23.8279 21.5692 23.9365 22.023 24.0637 22.4635C23.5942 22.1995 23.0829 22.0188 22.5524 21.9296L22.5897 21.9105L22.578 21.9019ZM21.8503 30.8678C21.7135 30.9187 21.573 30.9589 21.4299 30.9879C21.2654 31.0046 21.0998 31.0077 20.9348 30.997C20.7463 30.9656 20.5608 30.9179 20.3803 30.8546C20.1542 30.7583 19.9383 30.6395 19.7357 30.5C19.5137 30.3238 19.3075 30.1286 19.1191 29.9166C18.6872 29.3906 18.4061 28.757 18.3063 28.0839C18.2649 27.7458 18.2581 27.4044 18.2859 27.0651C18.3397 26.6772 18.4341 26.2962 18.5675 25.9284L18.5913 25.8617C18.7771 25.8311 18.9568 25.7712 19.1238 25.6843L19.6811 25.3998C20.0936 25.233 20.5211 25.106 20.9579 25.0205C21.2469 24.9897 21.5381 24.9833 21.8284 25.0016C22.0407 25.0384 22.2502 25.0907 22.4551 25.158C22.6068 25.2272 22.7538 25.3064 22.895 25.3953C23.0057 25.4915 23.1122 25.5935 23.2172 25.6999C23.3152 25.8416 23.4049 25.9889 23.4859 26.141C23.5543 26.3248 23.6084 26.5137 23.6475 26.7058C23.6783 27.0108 23.6824 27.3179 23.6597 27.6234C23.5794 28.1284 23.4535 28.6248 23.2835 29.1066C23.1409 29.4452 22.9689 29.7704 22.7692 30.0785C22.6272 30.2587 22.4711 30.4272 22.3022 30.5824C22.1611 30.688 22.0113 30.7815 21.8546 30.8619L21.8503 30.8678ZM15.9992 42.6243C15.9303 42.6595 15.8495 42.6717 15.7746 42.6881C15.6738 42.696 15.5724 42.6967 15.4714 42.6901L15.4165 42.6818L15.3572 42.6721C15.0894 42.6121 14.8104 42.6285 14.552 42.7196C14.0345 41.4759 13.6014 40.1988 13.2557 38.8971C13.5596 38.9753 13.8816 38.931 14.1525 38.7738L14.2301 38.7342C14.6032 38.5797 14.9902 38.4613 15.3859 38.3804C15.581 38.3597 15.7775 38.3555 15.9734 38.3677C16.0819 38.3887 16.1933 38.4154 16.3034 38.4465C16.4134 38.4776 16.4442 38.5237 16.5125 38.5652C16.584 38.6261 16.6521 38.6909 16.7166 38.7592C16.7928 38.866 16.861 38.9782 16.9207 39.0951C16.9967 39.2963 17.0553 39.5036 17.0959 39.7148C17.1294 40.0206 17.134 40.3288 17.1096 40.6353C17.063 40.938 16.9897 41.2359 16.8905 41.5255C16.798 41.7365 16.6885 41.9396 16.5631 42.1327C16.4707 42.2451 16.3715 42.3516 16.266 42.4517C16.177 42.4972 16.0982 42.5628 16.0106 42.6112L15.9992 42.6243ZM18.6604 49.0558C18.3291 48.7049 18.0078 48.3453 17.714 47.9897C17.0612 47.1663 16.4658 46.2989 15.932 45.3937C16.2384 45.3765 16.5402 45.312 16.8267 45.2023C16.9678 45.4709 17.1971 45.6825 17.4757 45.8015C17.7543 45.9204 18.0649 45.9392 18.3551 45.8548C18.7867 45.7275 19.2253 45.625 19.6688 45.5477C20.0759 45.4955 20.4872 45.4816 20.897 45.5061C21.0665 45.5292 21.2338 45.5653 21.3977 45.6141C21.4616 45.647 21.5211 45.6784 21.5835 45.7156C21.6035 45.7327 21.6225 45.7509 21.6404 45.7702L21.6641 45.8164C21.669 45.8406 21.6706 45.8654 21.669 45.8901C21.6558 45.9671 21.6378 46.0431 21.615 46.1178C21.5548 46.2457 21.4861 46.3695 21.4094 46.4882C21.2265 46.7138 21.0242 46.9229 20.805 47.1133C20.3951 47.4207 19.9586 47.6911 19.5008 47.9211L19.2738 48.037C19.0821 48.1545 18.9245 48.3202 18.8167 48.5178C18.7268 48.6838 18.6735 48.8672 18.6604 49.0558ZM30.439 54.1632C29.7918 54.1299 29.1389 54.0996 28.4754 54.0202C27.0907 53.8501 25.7298 53.5199 24.4198 53.0361C23.2085 52.5403 22.057 51.9082 20.9875 51.1518C20.6994 50.9352 20.4056 50.7215 20.1228 50.4585C20.1892 50.4574 20.2547 50.4437 20.3159 50.4182C20.6466 50.2856 20.9628 50.146 21.2559 49.9964L21.3593 49.9435C21.3805 50.1962 21.4606 50.4406 21.5932 50.657C21.8229 51.0235 22.1837 51.2883 22.6013 51.397L23.0277 51.4447C23.283 51.4423 23.534 51.3801 23.7608 51.2632L23.8355 51.225C24.4086 50.9997 25.002 50.8294 25.6077 50.7165C26.1943 50.6513 26.7862 50.6438 27.3747 50.6943C27.8405 50.7652 28.2989 50.8794 28.744 51.0353C29.0558 51.1721 29.3563 51.3336 29.6426 51.5184C29.8311 51.6723 30.0084 51.8394 30.1733 52.0185C30.2706 52.1555 30.3593 52.2985 30.4389 52.4465C30.4904 52.5964 30.5344 52.7488 30.5706 52.903C30.5845 53.1137 30.5847 53.325 30.5713 53.5355C30.5388 53.7485 30.4918 53.9616 30.4449 54.1747L30.439 54.1632ZM44.097 45.1267C43.8026 45.2426 43.4986 45.3333 43.1887 45.3978C42.901 45.4267 42.6112 45.4311 42.3225 45.4109C41.8754 45.3658 41.4483 45.2007 41.0861 44.933C40.9132 44.7945 40.7518 44.6422 40.6036 44.4774C40.4445 44.2606 40.3049 44.03 40.1865 43.7884C40.0597 43.4567 39.9625 43.1144 39.8961 42.7656C39.8371 42.2202 39.833 41.6703 39.8839 41.1244C39.8986 41.0114 39.9177 40.8998 39.9352 40.7853C40.134 40.8838 40.3371 40.9765 40.5445 41.0707C40.5455 41.0946 40.5491 41.1184 40.5553 41.1415C40.7426 41.995 41.1752 42.7756 41.7996 43.3866C42.0767 43.6464 42.4002 43.8515 42.7529 43.991C43.2253 44.2096 43.7476 44.2961 44.2642 44.2412C44.4663 44.2362 44.6646 44.1859 44.8446 44.094L44.9365 44.047C45.2276 43.8645 45.4371 43.5765 45.5217 43.2426C45.5604 43.088 45.5705 42.9276 45.5516 42.7691C45.8541 42.8438 46.1638 42.9111 46.4748 42.9742L46.314 43.1982C45.9706 43.6601 45.5812 44.0856 45.1516 44.4682C44.8465 44.7016 44.5209 44.9068 44.1789 45.0813L44.097 45.1267Z" fill="#5C5C5C"/>
</g>
</svg>
