<svg width="104" height="69" viewBox="0 0 104 69" fill="none" xmlns="http://www.w3.org/2000/svg">
<g clip-path="url(#clip0_594_3563)">
<path d="M86.5578 17.9122C85.7279 17.9762 84.91 18.1475 84.1248 18.4219C83.2458 18.7048 82.4047 19.093 81.6202 19.5781C81.3763 19.6957 81.1845 19.8984 81.0814 20.1476C80.988 20.4037 81.0004 20.6861 81.1158 20.9332C81.2312 21.1802 81.4404 21.3718 81.6975 21.4661C81.9557 21.5557 82.2384 21.5445 82.4885 21.4348C82.8926 21.281 83.2966 21.15 83.7093 21.0076C84.4418 20.7868 85.1959 20.6445 85.9589 20.5833C86.4221 20.5671 86.8857 20.5967 87.343 20.6716C87.539 20.7244 87.7306 20.792 87.9162 20.8738C88.035 20.946 88.1489 21.0259 88.2572 21.113C88.3393 21.2032 88.4159 21.2983 88.4865 21.3977C88.5647 21.5419 88.6327 21.6913 88.6899 21.8448C88.7632 22.1307 88.8121 22.4222 88.8361 22.7162C88.8376 23.0156 88.8146 23.3147 88.7673 23.6104C88.6629 23.9724 88.5278 24.3249 88.3632 24.664C87.968 25.3282 87.5041 25.9495 86.9791 26.5179C85.4317 28.0424 83.709 29.3806 81.8466 30.5047C78.7962 32.345 75.6155 33.9629 72.3295 35.3457C68.8913 36.8076 65.38 38.0936 61.8094 39.1987C56.2064 40.9579 50.5067 42.3974 44.7383 43.5101C41.8726 44.0796 39.0069 44.5381 36.0982 44.9026C33.7225 45.2016 31.3267 45.4721 28.9338 45.5803C26.8963 45.6686 24.8559 45.6458 22.8213 45.5462C20.5393 45.4645 18.2678 45.1978 16.0295 44.7488C15.1213 44.5661 14.2376 44.2794 13.3959 43.8945C13.1516 43.763 12.9212 43.6075 12.7081 43.4303C12.6405 43.3612 12.5773 43.288 12.519 43.211C12.4989 43.1712 12.4789 43.1313 12.4617 43.0886C12.4445 43.0459 12.4616 43.0146 12.4416 42.9776C12.4215 42.9405 12.4416 42.8722 12.4416 42.8181C12.474 42.715 12.5133 42.6142 12.5591 42.5162C12.6953 42.2954 12.8507 42.0867 13.0233 41.8926C13.6841 41.2395 14.4199 40.666 15.2156 40.184C16.0753 39.6457 16.9895 39.1616 17.9094 38.7003C18.1254 38.5944 18.2912 38.4087 18.3713 38.1829C18.4514 37.9572 18.4394 37.7092 18.338 37.4921C18.2366 37.2749 18.0538 37.1058 17.8286 37.0208C17.6034 36.9358 17.3537 36.9418 17.1328 37.0373C15.9923 37.5979 14.8845 38.2215 13.8143 38.9053C13.0894 39.351 12.4166 39.8754 11.8083 40.4687C11.3223 40.9268 10.9394 41.4819 10.6849 42.0976C10.48 42.6548 10.48 43.2661 10.6849 43.8233C11.0689 44.914 12.2095 45.5576 13.2096 45.9932C14.6191 46.5457 16.0902 46.9282 17.5913 47.1323C19.2903 47.4089 21.0024 47.599 22.7209 47.7019C24.3171 47.8072 25.922 47.8585 27.5239 47.8556C29.656 47.8556 31.7852 47.6933 33.9059 47.5111C37.2731 47.2263 40.626 46.802 43.9617 46.2695C50.6969 45.1834 57.3481 43.6333 63.867 41.6306C66.2857 40.8902 68.7015 40.1128 71.0715 39.2186C72.745 38.5883 74.3985 37.9077 76.032 37.1768C78.038 36.2741 80.044 35.2916 81.9669 34.2038C83.9675 33.1097 85.8662 31.8413 87.6411 30.4135C88.4638 29.7342 89.2304 28.9905 89.9336 28.1895C90.5568 27.4719 91.081 26.6752 91.4926 25.8202C91.6517 25.4987 91.7802 25.1631 91.8766 24.8178C92.1978 23.7562 92.2275 22.6284 91.9626 21.5515C91.7965 20.8545 91.4872 20.1991 91.0541 19.6265C90.8144 19.3232 90.5349 19.0531 90.2231 18.8234C89.8845 18.5757 89.5133 18.3754 89.1198 18.2283C88.7176 18.0815 88.3006 17.9784 87.8761 17.9207C87.6362 17.8837 87.3937 17.8666 87.151 17.8695C86.9504 17.8695 86.7527 17.8695 86.5549 17.8866L86.5578 17.9122ZM61.7836 39.193L61.5974 39.2528L61.7836 39.193Z" fill="#5C5C5C"/>
<path d="M83.2791 12.0217C82.2814 12.1492 81.2913 12.3298 80.3131 12.5627C79.8832 12.6653 79.4533 12.8048 79.0407 12.9216C78.628 13.0383 78.2698 13.1522 77.8944 13.2918C77.7529 13.3376 77.6222 13.4111 77.5097 13.508C77.3973 13.6049 77.3055 13.7231 77.2399 13.8558C77.1742 13.9884 77.1359 14.1328 77.1272 14.2804C77.1186 14.428 77.1397 14.5759 77.1894 14.7152C77.2392 14.8546 77.3165 14.9826 77.4168 15.0918C77.5172 15.201 77.6384 15.2891 77.7736 15.351C77.9087 15.4129 78.055 15.4472 78.2037 15.452C78.3524 15.4569 78.5005 15.4321 78.6395 15.3791C79.0746 15.2127 79.5196 15.0729 79.972 14.9605C81.1667 14.7157 82.3755 14.5445 83.5914 14.4479C85.0218 14.3403 86.4576 14.3242 87.89 14.3995C90.1107 14.5098 92.3092 14.8924 94.4354 15.5386C95.5826 15.9244 96.6809 16.4413 97.708 17.0792C98.3205 17.4921 98.8865 17.9695 99.3959 18.503C99.7452 18.9171 100.052 19.3645 100.313 19.8386C100.531 20.3031 100.703 20.7876 100.826 21.2852C100.94 21.9231 100.986 22.5713 100.963 23.2188C100.907 24.6866 100.429 26.1077 99.5851 27.3138C98.8805 28.3005 98.0652 29.2042 97.1549 30.0077C94.9397 31.9212 92.3892 33.4249 89.7843 34.7491L89.9562 34.6608L89.7527 34.7633L89.6095 34.8344L89.7413 34.769C85.672 36.7937 81.4164 38.4198 77.1321 39.9518C75.3582 40.5869 73.5786 41.2048 71.8076 41.8484C70.8819 42.1844 69.9649 42.5432 69.045 42.8963C67.5166 43.4811 65.9882 44.0505 64.4598 44.6049C57.7013 47.0934 50.7798 49.121 43.7435 50.6734L44.053 50.6078C36.9374 52.1115 29.647 53.0084 22.3652 52.6468C20.3289 52.5522 18.3013 52.3228 16.2956 51.9604C14.7708 51.6656 13.2662 51.2757 11.7907 50.7929C9.65781 50.1153 7.61872 49.1749 5.72109 47.9936C4.87331 47.4368 4.09424 46.7831 3.39986 46.0458C3.02894 45.6196 2.70427 45.1558 2.43125 44.6618C2.23828 44.2659 2.0884 43.8507 1.98418 43.4231C1.88924 42.9306 1.84986 42.4293 1.86671 41.9281C1.90893 41.4333 2.00501 40.9444 2.15328 40.4701C2.37457 39.8821 2.66303 39.3211 3.013 38.7985C3.57234 38.0154 4.22042 37.2988 4.94449 36.6627C6.61145 35.2818 8.43606 34.1004 10.3808 33.143C11.8451 32.4026 13.3439 31.739 14.8542 31.0984C16.1065 30.5687 17.3731 30.0675 18.614 29.5151C18.8359 29.4328 19.0167 29.2676 19.1178 29.0548C19.219 28.8421 19.2326 28.5984 19.1556 28.3759C19.1165 28.2654 19.0557 28.1637 18.9767 28.0767C18.8977 27.9897 18.8022 27.9189 18.6956 27.8689C18.5889 27.8188 18.4734 27.7903 18.3556 27.785C18.2378 27.7796 18.1201 27.7976 18.0093 27.8377C16.3501 28.5781 14.6593 29.2388 12.9943 29.965C10.9233 30.8453 8.91291 31.8603 6.97628 33.0035C5.15081 34.1027 3.38552 35.4183 2.02717 37.07C1.39737 37.8244 0.889771 38.6718 0.522663 39.5816C0.151678 40.5257 -0.0294097 41.5328 -0.0103574 42.5461C0.0052197 43.5518 0.243996 44.5415 0.688898 45.445C1.18385 46.4104 1.8398 47.2858 2.62896 48.0336C3.46378 48.8209 4.38354 49.5143 5.37148 50.101C6.38009 50.7185 7.4338 51.26 8.52378 51.7212C10.6408 52.6329 12.8375 53.3498 15.0863 53.8628C17.7136 54.4295 20.3864 54.7631 23.0731 54.8595C29.8878 55.2183 36.7197 54.5064 43.4197 53.2135C50.2131 51.8582 56.9087 50.0574 63.4626 47.8228C65.033 47.2969 66.5958 46.7531 68.1509 46.1911C69.3946 45.7439 70.6326 45.2742 71.8763 44.827C73.5471 44.2204 75.2407 43.6708 76.9229 43.0956C81.2444 41.6234 85.5516 40.0771 89.6868 38.1379C91.8495 37.1428 93.9407 36.0011 95.9456 34.7206C97.7495 33.5874 99.3985 32.2273 100.852 30.674C101.52 29.9342 102.11 29.129 102.614 28.2705C103.085 27.4524 103.442 26.5751 103.677 25.6621C103.93 24.6379 104.038 23.5836 103.998 22.5297C103.972 21.5588 103.793 20.5981 103.468 19.682C102.842 17.9627 101.728 16.4604 100.261 15.3563C98.6995 14.1432 96.8913 13.363 95.0056 12.7934C93.1401 12.247 91.2164 11.9201 89.2742 11.8195C88.5635 11.7768 87.8413 11.754 87.1449 11.754C85.8554 11.7518 84.5671 11.8307 83.2877 11.9904L83.2791 12.0217ZM10.6014 33.0063L10.4725 33.0746L10.6014 33.0063ZM11.5729 50.716L11.7219 50.7645L11.5729 50.716ZM89.7384 34.769H89.77L89.727 34.789" fill="#5C5C5C"/>
<path d="M48.6533 1.24819C45.2062 1.73462 41.829 2.62356 38.5917 3.89656C32.181 6.42531 26.2461 10.4007 22.1281 15.965C20.6699 17.917 19.4841 20.056 18.6032 22.3239C18.0775 23.675 17.7 25.0785 17.477 26.51C17.277 27.876 17.2271 29.2596 17.328 30.6363C17.5028 33.1992 18.2364 35.7138 19.0474 38.1485C19.9072 40.7741 20.893 43.3683 21.5722 46.0537C21.7097 46.6005 22.4061 46.8568 22.899 46.6831C23.1488 46.5881 23.3535 46.403 23.4721 46.1648C23.588 45.9124 23.6053 45.6262 23.5208 45.3617C23.0136 43.4168 22.4204 41.4974 21.8014 39.5838C21.2283 37.7869 20.6551 35.99 20.2482 34.1504C19.8799 32.4673 19.7163 30.7464 19.761 29.0245C19.8614 27.5861 20.1336 26.1646 20.572 24.79C21.2258 22.9663 22.0995 21.2279 23.1741 19.6129C24.5364 17.65 26.1295 15.8556 27.9197 14.2678C30.2156 12.3034 32.739 10.618 35.4365 9.24735C38.5215 7.72782 41.7808 6.5861 45.1427 5.84722C48.3105 5.16912 51.5503 4.88218 54.7887 4.99291C57.3214 5.1644 59.8236 5.64255 62.2396 6.41676C64.7393 7.2791 67.1247 8.43895 69.3438 9.87101C71.4244 11.2835 73.3299 12.9352 75.0208 14.7918C76.5313 16.5207 77.8353 18.4175 78.9067 20.4445C79.5622 21.769 80.1364 23.1317 80.6261 24.5252C80.884 25.2684 81.1391 26.0117 81.3798 26.7606C81.6377 27.5694 81.8498 28.3923 82.0876 29.2096C82.1665 29.4312 82.317 29.6206 82.5155 29.7484C82.714 29.8761 82.9495 29.935 83.1852 29.9159C83.4176 29.8957 83.6372 29.8017 83.8117 29.6479C83.9861 29.494 84.1061 29.2884 84.1538 29.0616C84.3084 28.2241 84.3947 27.3756 84.4117 26.5243C84.4449 25.668 84.4037 24.8105 84.2885 23.9613C84.1494 23.0861 83.958 22.2198 83.7154 21.3671C83.4978 20.5489 83.2229 19.7467 82.8929 18.9665C82.2127 17.3609 81.3778 15.8246 80.3997 14.3789C79.4037 12.9291 78.2766 11.5727 77.0325 10.3266C75.8777 9.15641 74.6225 8.0883 73.2813 7.13438C71.8339 6.08922 70.3067 5.15803 68.7133 4.34933C67.1025 3.55794 65.4325 2.89149 63.7184 2.35595C62.1293 1.84159 60.4997 1.46056 58.8466 1.21687C57.2948 0.984859 55.7275 0.8706 54.1583 0.87513C52.3084 0.881574 50.4612 1.0167 48.6303 1.27951L48.6533 1.24819ZM23.1254 19.687L22.9907 19.8834L23.1254 19.687Z" fill="#5C5C5C"/>
<path d="M84.9355 40.0432C84.712 41.3276 84.5716 42.6233 84.285 43.899C83.9984 45.1292 83.6574 46.3509 83.2619 47.5526C82.4466 49.9359 81.3408 52.211 79.9692 54.3273C77.6406 57.8531 74.4025 60.6933 70.5925 62.5514C68.2833 63.6899 65.8454 64.5503 63.3308 65.1143C60.6584 65.6498 57.9295 65.8545 55.2065 65.7237C51.8909 65.495 48.6174 64.8531 45.463 63.8129C41.3897 62.4155 37.5104 60.5124 33.917 58.1489C31.7018 56.6688 29.5889 55.0429 27.5923 53.2822C27.3241 53.0495 26.9738 52.9324 26.6185 52.9564C26.2633 52.9804 25.9322 53.1437 25.6981 53.4103C25.464 53.6769 25.3461 54.025 25.3703 54.378C25.3945 54.731 25.5588 55.06 25.8271 55.2926C28.7636 57.867 31.9289 60.1716 35.284 62.1783C38.6589 64.2048 42.2619 65.8297 46.019 67.0194C49.7366 68.2002 53.6134 68.8118 57.5162 68.8334C61.5025 68.8404 65.4565 68.1223 69.1826 66.7147C70.6317 66.1573 72.0419 65.5047 73.4038 64.7612C74.6732 64.0816 75.8813 63.2947 77.0146 62.409C79.3081 60.6036 81.2887 58.4373 82.8779 55.996C83.598 54.9042 84.2378 53.7622 84.7922 52.5788C85.3985 51.2564 85.9006 49.8892 86.2939 48.4895C86.6689 47.1573 86.9165 45.7929 87.0332 44.4144C87.201 42.9958 87.2077 41.563 87.0533 40.1429C87.0317 39.9134 86.9365 39.6968 86.7817 39.5251C86.6269 39.3533 86.4208 39.2355 86.1936 39.1889C86.1312 39.1776 86.0679 39.1719 86.0044 39.1719C85.7564 39.1715 85.5159 39.2563 85.3237 39.412C85.1315 39.5677 84.9994 39.7847 84.9498 40.0262L84.9355 40.0432ZM83.2304 47.6466L83.153 47.8829L83.2304 47.6466Z" fill="#5C5C5C"/>
<path d="M46.1625 36.8444C45.6281 36.8819 45.1029 37.0029 44.6064 37.2031C43.6596 37.5866 42.8313 38.2113 42.205 39.0143C41.4983 39.9311 41.0493 41.0181 40.9039 42.1639C40.8641 42.3905 40.9145 42.6233 41.0444 42.8136C41.1744 43.0039 41.3737 43.1364 41.6003 43.1833C41.8289 43.2251 42.0649 43.1755 42.257 43.0454C42.4491 42.9153 42.5818 42.7153 42.6262 42.4885C42.6734 42.2001 42.7385 41.9146 42.8211 41.6341C42.9606 41.251 43.1402 40.8837 43.357 40.5379C43.5563 40.2634 43.7808 40.0079 44.0276 39.7746C44.2595 39.5851 44.5078 39.4165 44.7698 39.2707C45.0188 39.1533 45.2777 39.0579 45.5435 38.9858C46.0191 38.8797 46.515 38.9064 46.9764 39.0627C47.2254 39.1608 47.466 39.2789 47.6957 39.4158C48.0069 39.6403 48.2949 39.895 48.5554 40.1761L48.6213 40.253C48.8109 40.5132 49.0905 40.6947 49.4065 40.7628C49.5646 40.7933 49.7273 40.7924 49.885 40.7602C50.0428 40.728 50.1926 40.665 50.3258 40.575C50.459 40.485 50.5729 40.3698 50.6611 40.2358C50.7492 40.1018 50.8098 39.9519 50.8394 39.7945C50.8715 39.6377 50.871 39.4759 50.838 39.3192C50.805 39.1625 50.7401 39.0142 50.6474 38.8833C50.4374 38.6195 50.2085 38.3712 49.9625 38.1401C49.7227 37.9271 49.4637 37.7365 49.1887 37.5706C48.7267 37.2836 48.2218 37.0711 47.6928 36.9411C47.3185 36.8453 46.9329 36.8003 46.5465 36.8073C46.4176 36.8073 46.2857 36.8073 46.1597 36.8073" fill="#5C5C5C"/>
<path d="M47.437 39.9062C47.024 39.9581 46.6211 40.0715 46.242 40.2424C45.8121 40.4104 45.3823 40.5983 44.9696 40.7891C44.1099 41.1821 43.2501 41.6091 42.3904 42.0505C42.2661 42.1306 42.1598 42.2356 42.0784 42.3586C41.997 42.4817 41.9423 42.6202 41.9176 42.7654C41.8871 42.9121 41.8868 43.0635 41.9169 43.2104C41.9469 43.3572 42.0066 43.4965 42.0924 43.6197C42.2618 43.8649 42.521 44.0346 42.8146 44.0924C43.1082 44.1377 43.4085 44.076 43.66 43.9187L44.0239 43.7279C44.6448 43.4185 45.2724 43.1194 45.9067 42.8308C46.2678 42.6685 46.6289 42.5062 46.9928 42.3496C47.3842 42.2067 47.7558 42.0154 48.099 41.7801C48.2452 41.6821 48.3628 41.5475 48.44 41.3899C48.5178 41.2347 48.5542 41.0622 48.5459 40.889C48.5376 40.7157 48.4849 40.5474 48.3927 40.4002C48.3005 40.2529 48.1719 40.1315 48.0192 40.0475C47.8664 39.9636 47.6946 39.9199 47.5201 39.9206H47.4398L47.437 39.9062ZM44.1959 43.6311L44.0411 43.7108L44.1959 43.6311ZM44.0182 43.7221L43.9379 43.7621L44.0182 43.7221Z" fill="#5C5C5C"/>
<path d="M49.1218 39.9138C46.7747 40.9304 44.4506 41.9897 42.095 42.9893C41.8411 43.0848 41.6317 43.2705 41.5075 43.5104C41.419 43.6952 41.3875 43.9019 41.417 44.1044C41.4465 44.307 41.5356 44.4963 41.6732 44.6486C41.8108 44.8008 41.9907 44.9092 42.1902 44.9601C42.3897 45.0109 42.5999 45.0019 42.7942 44.9343C45.2215 43.892 47.6373 42.8042 49.9586 41.5341C50.1297 41.4208 50.2577 41.2538 50.3221 41.0597C50.3865 40.8656 50.3836 40.6556 50.3139 40.4634C50.2451 40.2845 50.1245 40.1299 49.9675 40.019C49.8104 39.908 49.6239 39.8457 49.4313 39.8398C49.3267 39.8394 49.2232 39.8607 49.1275 39.9024" fill="#5C5C5C"/>
<path d="M46.8216 38.3736C45.2814 38.7263 43.8364 39.4063 42.586 40.367C42.3512 40.5323 42.1875 40.7793 42.1275 41.059C42.0756 41.342 42.1362 41.634 42.2966 41.8734C42.4613 42.1097 42.7129 42.2721 42.9972 42.3254C43.2814 42.3787 43.5754 42.3186 43.8154 42.1582C44.3717 41.7181 44.9685 41.331 45.5979 41.002C46.2115 40.7095 46.8478 40.4667 47.5007 40.2759C47.7545 40.1856 47.9621 39.9995 48.0786 39.7579C48.195 39.5164 48.2108 39.2389 48.1226 38.9859C48.0315 38.7385 47.8492 38.5349 47.6125 38.4163C47.4832 38.3535 47.3409 38.3213 47.1969 38.3223C47.0704 38.3251 46.9446 38.3414 46.8216 38.3708" fill="#5C5C5C"/>
<path d="M46.2971 56.6586C45.5866 57.4265 44.9487 58.2578 44.3914 59.1418C44.2462 59.3743 44.1244 59.6204 44.0275 59.8765C43.8833 60.2311 43.8103 60.6103 43.8125 60.9928C43.8237 61.3067 43.9241 61.611 44.1021 61.8705C44.2801 62.1301 44.5285 62.3342 44.8184 62.4593C45.1274 62.5809 45.4576 62.64 45.79 62.6331C46.0654 62.6243 46.3387 62.5822 46.6039 62.5078C47.0263 62.4096 47.4358 62.2634 47.8246 62.0721C48.3003 61.8548 48.7533 61.5915 49.1772 61.2861C49.5982 61.0021 49.9513 60.6298 50.2117 60.1954C50.3728 59.8942 50.4274 59.548 50.3666 59.2123C50.3057 58.8766 50.1331 58.5709 49.8764 58.3444C49.4408 57.96 48.8649 57.9116 48.3147 57.8831C48.4069 57.6558 48.4261 57.4057 48.3697 57.167C48.3132 56.9284 48.1839 56.713 47.9994 56.5504C47.7857 56.3656 47.5117 56.2644 47.2285 56.2656C47.0578 56.2653 46.8891 56.3007 46.7331 56.3693C46.577 56.438 46.4373 56.5385 46.3229 56.6643" fill="#5C5C5C"/>
<path d="M56.9675 32.7485C56.8543 32.8773 56.7679 33.027 56.713 33.1891C56.6581 33.3511 56.6359 33.5223 56.6476 33.6929C56.6593 33.8634 56.7047 34.0301 56.7812 34.1832C56.8577 34.3363 56.9639 34.4729 57.0936 34.5853C57.3642 34.8093 57.7106 34.9223 58.0622 34.9014C58.2311 34.8901 58.396 34.8452 58.5472 34.7694C58.6983 34.6936 58.8325 34.5884 58.942 34.46C59.0576 34.3292 59.1454 34.1765 59.2001 34.011C59.2548 33.8456 59.2751 33.6709 59.2601 33.4975C59.2319 33.1598 59.0726 32.8463 58.8159 32.6232C58.5463 32.3994 58.2008 32.2863 57.8501 32.3071C57.6809 32.3186 57.5156 32.3636 57.364 32.4394C57.2125 32.5152 57.0777 32.6203 56.9675 32.7485Z" fill="#5C5C5C"/>
<path d="M59.4023 25.6013C59.424 25.8109 59.5267 26.0039 59.6889 26.1396C59.8556 26.2774 60.0685 26.3476 60.285 26.336C60.4436 26.3239 60.5951 26.2655 60.7203 26.1679C60.8455 26.0704 60.9388 25.9382 60.9885 25.788C61.0381 25.6378 61.0419 25.4764 60.9993 25.324C60.9568 25.1717 60.8697 25.0354 60.7493 24.9321C60.5826 24.7943 60.3697 24.7241 60.1532 24.7356C59.9417 24.7531 59.7457 24.8525 59.6074 25.0123C59.4691 25.1721 59.3995 25.3796 59.4138 25.5899" fill="#5C5C5C"/>
<path d="M62.5169 14.65C62.2952 14.9024 62.1834 15.2318 62.206 15.566C62.2285 15.9003 62.3837 16.2119 62.6373 16.4326C62.8987 16.6503 63.234 16.7603 63.5744 16.7402C63.7392 16.7302 63.9004 16.6872 64.0481 16.6138C64.1958 16.5404 64.3271 16.4381 64.4341 16.313C64.6576 16.0547 64.7689 15.7188 64.7436 15.379C64.7166 15.0492 64.5614 14.7427 64.3109 14.5247C64.0492 14.3075 63.7141 14.1976 63.3738 14.2171C63.209 14.2275 63.048 14.2706 62.9003 14.344C62.7526 14.4174 62.6213 14.5195 62.5141 14.6443" fill="#5C5C5C"/>
<path d="M71.7451 26.9059C71.7508 27.019 71.779 27.1299 71.8282 27.2321C71.8774 27.3343 71.9466 27.4257 72.0317 27.501C72.2141 27.6547 72.4492 27.7323 72.6879 27.7175C72.9225 27.6978 73.1397 27.5869 73.2921 27.4087C73.4446 27.2305 73.52 26.9995 73.5018 26.7663C73.4961 26.6532 73.4678 26.5423 73.4186 26.4402C73.3694 26.338 73.3003 26.2466 73.2152 26.1712C73.0325 26.018 72.7975 25.9405 72.5589 25.9548C72.4426 25.9641 72.3294 25.9961 72.2255 26.049C72.1217 26.1018 72.0294 26.1745 71.9538 26.2628C71.8782 26.3511 71.8209 26.4534 71.7851 26.5637C71.7493 26.674 71.7357 26.7903 71.7451 26.9059Z" fill="#5C5C5C"/>
<path d="M65.5793 56.8859C65.3678 57.1285 65.2617 57.4446 65.2842 57.7649C65.3068 58.0852 65.4562 58.3835 65.6997 58.5945C65.9518 58.7986 66.2722 58.9004 66.5967 58.8793C66.9086 58.8595 67.2 58.7183 67.4077 58.4863C67.6188 58.2437 67.725 57.9279 67.703 57.6079C67.681 57.2879 67.5326 56.9895 67.2902 56.7777C67.037 56.5736 66.7156 56.4719 66.3903 56.4929C66.2332 56.5041 66.0799 56.5461 65.9392 56.6164C65.7986 56.6868 65.6733 56.7842 65.5707 56.9029" fill="#5C5C5C"/>
<path d="M55.5144 56.8872C55.534 57.1189 55.6428 57.3341 55.8182 57.4881C56.0041 57.6415 56.2418 57.7189 56.483 57.7045C56.7198 57.6849 56.9392 57.573 57.0933 57.3932C57.2474 57.2134 57.3237 56.9803 57.3054 56.7448C57.2858 56.5131 57.177 56.2979 57.0017 56.1439C56.8158 55.9905 56.5781 55.9131 56.3368 55.9275C56.1 55.9471 55.8806 56.059 55.7265 56.2388C55.5724 56.4186 55.4961 56.6517 55.5144 56.8872Z" fill="#5C5C5C"/>
<path d="M48.2054 14.1661C47.9626 14.2413 47.7447 14.3801 47.5748 14.5681C47.4048 14.756 47.289 14.9861 47.2397 15.234C47.1705 15.6779 47.2468 16.1322 47.4575 16.5297C47.6958 17.018 47.9911 17.4768 48.3372 17.8966C48.1648 17.8956 47.9961 17.9462 47.8529 18.0418C47.6563 18.1758 47.5189 18.3797 47.4689 18.6113C47.4262 18.8463 47.4776 19.0885 47.6122 19.2862C47.6764 19.3852 47.7604 19.4699 47.859 19.5351C47.9576 19.6003 48.0687 19.6445 48.1854 19.665C49.06 19.7447 49.9393 19.759 50.8161 19.7077C51.3649 19.6861 51.9059 19.5705 52.4152 19.366C52.8706 19.1958 53.2429 18.8584 53.4554 18.4234C53.5453 18.2126 53.5916 17.986 53.5916 17.757C53.5916 17.5281 53.5453 17.3015 53.4554 17.0907C53.093 16.3423 52.5234 15.712 51.8134 15.2739C51.0928 14.7481 50.2791 14.3617 49.4147 14.1348C49.227 14.0901 49.0347 14.0671 48.8416 14.0664C48.627 14.0663 48.4133 14.0931 48.2054 14.1462V14.1661ZM50.1427 17.1106C49.9277 16.8258 49.7157 16.524 49.5265 16.2136C49.9361 16.3817 50.3294 16.5867 50.7015 16.8258C50.9958 17.024 51.2695 17.2511 51.5182 17.5036C51.5654 17.561 51.6094 17.6209 51.65 17.683C51.5173 17.7337 51.3814 17.7756 51.2431 17.8083C50.9183 17.8662 50.5899 17.9014 50.2602 17.9137C50.3059 17.7801 50.3191 17.6377 50.2987 17.4981C50.2783 17.3585 50.2248 17.2257 50.1427 17.1106Z" fill="#5C5C5C"/>
<path d="M34.0037 21.1824C33.8997 21.3011 33.8202 21.4391 33.7697 21.5883C33.7193 21.7376 33.699 21.8953 33.7099 22.0523C33.7208 22.2094 33.7628 22.3628 33.8333 22.5038C33.9039 22.6448 34.0017 22.7705 34.1212 22.8739C34.3706 23.0767 34.6879 23.1784 35.0096 23.1587C35.1652 23.1477 35.3171 23.1061 35.4563 23.0361C35.5955 22.9662 35.7194 22.8694 35.8206 22.7515C36.0302 22.5122 36.1359 22.2001 36.1144 21.8836C36.0929 21.5671 35.946 21.2719 35.706 21.0628C35.4558 20.8593 35.1374 20.7575 34.8147 20.778C34.6591 20.789 34.5073 20.8307 34.368 20.9006C34.2288 20.9705 34.1049 21.0673 34.0037 21.1852" fill="#5C5C5C"/>
<path d="M30.5095 38.101C30.4055 38.2215 30.3266 38.3613 30.2774 38.5124C30.2282 38.6634 30.2097 38.8227 30.2229 38.9809C30.2493 39.2915 30.395 39.5801 30.6298 39.7868C30.8797 39.9889 31.1967 40.0905 31.5182 40.0716C31.6737 40.0611 31.8254 40.0199 31.9647 39.9505C32.1039 39.8811 32.2279 39.7848 32.3292 39.6672C32.5378 39.4218 32.6408 39.1047 32.6158 38.7844C32.5895 38.4732 32.4426 38.1842 32.206 37.9785C31.9575 37.7761 31.6412 37.6744 31.3205 37.6937C31.1647 37.7041 31.0127 37.7455 30.8733 37.8154C30.734 37.8854 30.6103 37.9825 30.5095 38.101Z" fill="#5C5C5C"/>
<path d="M27.4291 24.2912C27.0308 24.3538 26.6353 24.4335 26.2399 24.5247C25.9714 24.5816 25.71 24.6676 25.4604 24.781C25.1638 24.9065 24.8973 25.0929 24.6781 25.3277C24.4256 25.6292 24.293 26.0121 24.3055 26.4041C24.3288 26.8352 24.5055 27.244 24.8041 27.5575C25.105 27.9134 25.4461 28.2381 25.7642 28.5798L25.8358 28.6624L25.8903 28.7279L25.6839 29.1493C25.5619 29.3963 25.5437 29.6813 25.6332 29.9416C25.7226 30.202 25.9125 30.4164 26.161 30.5376C26.4096 30.6588 26.6964 30.6769 26.9584 30.588C27.2204 30.4991 27.4361 30.3104 27.5581 30.0634C27.7415 29.7018 27.9192 29.3401 28.0883 28.9699C28.2501 28.5984 28.3907 28.2181 28.5095 27.8308C28.7535 27.019 28.8016 26.1615 28.6499 25.3277C28.6196 25.037 28.483 24.7675 28.2659 24.5702C28.0674 24.3959 27.8143 24.2953 27.5495 24.2855C27.5094 24.2825 27.4692 24.2825 27.4291 24.2855" fill="#5C5C5C"/>
<path d="M91.5927 18.6966C91.4648 18.7853 91.377 18.9202 91.3481 19.0725C91.3191 19.2247 91.3514 19.3822 91.4379 19.511C91.7496 19.9413 92.0311 20.3923 92.2805 20.8608C92.5683 21.435 92.7866 22.0411 92.931 22.6663C93.0378 23.2091 93.082 23.7623 93.0628 24.3151C93.0203 24.9309 92.9019 25.5391 92.7103 26.1262C92.4244 26.9297 92.0394 27.6949 91.5641 28.4044C90.7306 29.5929 89.7548 30.6763 88.6582 31.6308C87.2803 32.823 85.8115 33.9075 84.265 34.8743C82.623 35.9223 80.915 36.8677 79.1784 37.7448L79.2242 37.722L79.1497 37.759H79.1239C76.2152 39.2199 73.2205 40.5071 70.1829 41.6803C67.3993 42.7567 64.5813 43.742 61.729 44.6362C59.9092 45.2057 58.0781 45.7525 56.2354 46.2423C55.6336 46.4018 55.0318 46.5556 54.4271 46.6979C52.0849 47.2504 49.7369 47.7791 47.3832 48.2841H47.4147C39.6772 49.9244 31.7593 51.1973 23.8212 50.7929C22.5574 50.7217 21.2965 50.6078 20.0442 50.4427C18.8979 50.2917 17.7516 50.0782 16.6053 49.8731C14.9597 49.6001 13.3327 49.2264 11.7336 48.754C10.9156 48.4889 10.1324 48.1275 9.40086 47.6776C9.0085 47.4137 8.64708 47.1071 8.32334 46.7634C8.08439 46.4822 7.87597 46.1768 7.7015 45.8522C7.53396 45.4993 7.4043 45.13 7.31464 44.7501C7.22218 44.2564 7.18374 43.7542 7.2 43.2522C7.2365 42.8522 7.31525 42.457 7.43497 42.0733C7.6483 41.4914 7.92913 40.9361 8.27178 40.4188C8.82642 39.632 9.47176 38.9123 10.1947 38.2745C11.1338 37.4638 12.1659 36.766 13.2696 36.1957C14.1149 35.7694 15.0074 35.4426 15.929 35.2218C16.4423 35.1146 16.9664 35.0669 17.4908 35.0794H17.6198C17.7314 35.0698 17.8387 35.0326 17.9321 34.9712C18.0738 34.8743 18.1716 34.726 18.2044 34.5582C18.2314 34.4192 18.2114 34.2752 18.1477 34.1486C18.084 34.0219 17.98 33.9197 17.8519 33.8577C17.7468 33.8073 17.6301 33.7857 17.5137 33.7951C16.6398 33.7727 15.7682 33.8949 14.9346 34.1567C13.9617 34.4519 13.0254 34.855 12.1434 35.3584C11.2126 35.8751 10.3386 36.4869 9.53557 37.1838C8.73615 37.8535 8.02292 38.6187 7.41206 39.4619C7.1344 39.8508 6.88539 40.2591 6.66698 40.6836C6.44647 41.1252 6.2717 41.588 6.1454 42.0647C5.90861 42.9921 5.89487 43.9618 6.10527 44.8954C6.27851 45.7783 6.66172 46.6072 7.22291 47.313C7.78584 47.9868 8.47241 48.5483 9.24613 48.9675C10.064 49.4096 10.9291 49.7592 11.8253 50.0098C12.7566 50.2946 13.7109 50.4968 14.6652 50.6847C15.693 50.8916 16.7237 51.0815 17.7573 51.2542C19.1902 51.5105 20.6488 51.6871 22.1046 51.8067C28.0252 52.2937 33.9859 51.7469 39.8291 50.7929C42.7608 50.3117 45.6695 49.7165 48.5696 49.0843C50.0025 48.7711 51.4353 48.4407 52.8682 48.1076C53.6562 47.9253 54.4472 47.7431 55.2353 47.538C57.1639 47.0596 59.0725 46.4957 60.9667 45.912C63.735 45.0596 66.4746 44.1227 69.1856 43.1013C72.2519 41.9622 75.2753 40.6865 78.227 39.2655C81.0971 37.9201 83.8533 36.3469 86.4688 34.5611C87.6351 33.7509 88.7456 32.8642 89.793 31.9071C90.7157 31.0702 91.5467 30.1385 92.2719 29.1277C92.8021 28.3912 93.2409 27.5938 93.5786 26.7527C93.9103 25.9158 94.1038 25.0311 94.1518 24.1328C94.2435 22.2249 93.5356 20.3653 92.4323 18.8247C92.3764 18.7457 92.3021 18.6812 92.2159 18.6366C92.1296 18.592 92.0338 18.5686 91.9366 18.5684C91.82 18.5679 91.706 18.6027 91.6099 18.6681L91.5927 18.6966ZM92.7419 26.0721V26.1063C92.7406 26.0949 92.7406 26.0835 92.7419 26.0721ZM92.7419 26.112C92.7419 26.1433 92.7218 26.1718 92.7132 26.2031C92.7132 26.1746 92.7304 26.1433 92.7419 26.112ZM88.6123 31.6849L88.5694 31.7219L88.6123 31.6849ZM17.3705 35.068H17.4765H17.3705ZM15.9032 35.2274H15.8487H15.9032ZM13.2725 36.1985L13.1636 36.2555L13.2725 36.1985ZM7.7445 45.9035L7.76454 45.9433L7.7445 45.9035ZM47.3574 48.3097H47.4004H47.3574Z" fill="#5C5C5C"/>
</g>
<defs>
<clipPath id="clip0_594_3563">
<rect width="104" height="69" fill="white"/>
</clipPath>
</defs>
</svg>
