<svg width="151" height="197" viewBox="0 0 151 197" fill="none" xmlns="http://www.w3.org/2000/svg">
<path d="M44.571 128.272C44.5449 128.508 44.5678 128.746 44.6383 128.972C44.7088 129.199 44.8253 129.408 44.9805 129.587C47.855 132.323 50.7847 134.998 53.739 137.655C55.2934 139.054 56.8477 140.453 58.413 141.84C59.1324 142.484 59.8518 143.127 60.5795 143.751C60.9944 144.102 61.4114 144.449 61.8346 144.781C62.272 145.126 62.7545 145.409 63.2687 145.622C63.5075 145.708 63.7648 145.728 64.014 145.681C64.2632 145.633 64.4953 145.521 64.6865 145.354C64.931 145.147 65.1003 144.864 65.1681 144.551C65.236 144.237 65.1986 143.91 65.0618 143.62C64.4903 142.693 63.7786 141.859 62.9521 141.15C62.1025 140.336 61.2241 139.55 60.3524 138.761C58.7485 137.306 57.1315 135.868 55.5234 134.422C52.9043 132.065 50.3031 129.692 47.7459 127.271C47.4263 126.908 46.9808 126.682 46.5 126.636C46.1285 126.608 45.7575 126.697 45.439 126.89C45.1205 127.083 44.8704 127.371 44.7236 127.714C44.6427 127.901 44.5941 128.101 44.5797 128.304" fill="#5C5C5C"/>
<path d="M21.9675 140.872C24.0174 142.959 26.1471 144.967 28.2559 147.023C30.5629 149.21 32.9319 151.334 35.3518 153.406C40.047 157.373 45.1088 160.995 50.6905 163.593C50.9197 163.677 51.1635 163.712 51.4069 163.698C51.6503 163.684 51.8884 163.621 52.1065 163.512C52.5565 163.286 52.9032 162.896 53.0753 162.423C53.298 161.913 53.5208 161.402 53.7817 160.908C56.8693 154.869 61.25 149.564 64.8567 143.82C65.1227 143.431 65.2233 142.953 65.1365 142.49C65.0496 142.027 64.7825 141.617 64.3937 141.351C64.0048 141.085 63.5263 140.985 63.0634 141.072C62.6004 141.158 62.1909 141.426 61.925 141.814C59.9151 145.017 57.6873 148.068 55.5392 151.17C53.6982 153.781 52.011 156.498 50.4862 159.306C44.7087 156.219 39.5425 152.12 34.6652 147.749C33.0347 146.277 31.4209 144.767 29.8584 143.256C29.0605 142.48 28.2633 141.703 27.4668 140.924C28.3707 140.676 29.2598 140.377 30.1296 140.028C32.0872 139.199 33.9597 138.181 35.7208 136.99C37.4757 135.858 39.143 134.613 40.8355 133.403C41.6729 132.785 42.5485 132.184 43.4083 131.593C44.2681 131.002 45.1523 130.434 46.0142 129.838C46.2575 129.633 46.4257 129.352 46.4925 129.041C46.5593 128.73 46.5209 128.406 46.3834 128.118C46.2142 127.768 45.9134 127.498 45.5463 127.367C45.1825 127.259 44.7915 127.292 44.4503 127.457C42.6017 128.245 40.8412 129.225 39.1983 130.382C37.5964 131.451 35.9777 132.557 34.3757 133.625L34.579 133.498L34.3421 133.65L34.191 133.749L34.3284 133.656C32.2467 135.033 30.0068 136.154 27.657 136.996C26.4128 137.379 25.1312 137.627 23.8341 137.738C23.7411 137.743 23.6481 137.748 23.5571 137.748C23.2346 137.722 22.9107 137.776 22.6139 137.904C22.3064 138.049 22.0436 138.274 21.8529 138.555C21.7898 138.648 21.7356 138.746 21.691 138.848C21.537 139.174 21.4794 139.537 21.525 139.894C21.5706 140.251 21.7176 140.588 21.9485 140.864L21.9675 140.872ZM34.3391 133.592L34.3537 133.559L34.3062 133.589" fill="#5C5C5C"/>
<path d="M47.5258 153.183C47.5108 153.38 47.5351 153.579 47.5974 153.768C47.6596 153.956 47.7586 154.131 47.8885 154.281C48.0184 154.431 48.1767 154.554 48.3544 154.643C48.532 154.731 48.7255 154.784 48.9235 154.797C49.3158 154.826 49.7036 154.699 50.0034 154.445C51.653 152.729 53.2518 150.964 54.7998 149.151C56.3854 147.317 57.8634 145.393 59.2266 143.389C59.4189 143.101 59.4908 142.749 59.4267 142.409C59.3626 142.069 59.1677 141.768 58.8838 141.569C58.5952 141.376 58.2427 141.301 57.9005 141.362C57.5718 141.447 57.2839 141.645 57.088 141.923C55.0684 144.274 53.1142 146.672 51.0435 148.984L51.2067 148.806L50.9533 149.087C50.011 150.119 49.0532 151.139 48.08 152.146C47.9065 152.314 47.7646 152.512 47.6606 152.73C47.5976 152.875 47.5607 153.03 47.5517 153.188L47.5258 153.183ZM50.9575 149.077L51.0477 148.975L50.9533 149.087L50.9575 149.077Z" fill="#5C5C5C"/>
<path d="M40.4759 151.278C40.6389 151.614 40.9275 151.873 41.2795 151.999C41.6315 152.125 42.0188 152.108 42.3582 151.951C42.9182 151.698 43.4615 151.409 43.9848 151.087C44.7556 150.622 45.5082 150.121 46.2486 149.608C47.7897 148.536 49.2731 147.388 50.7411 146.21C52.0145 145.192 53.2793 144.141 54.4951 143.047C55.133 142.503 55.7426 141.927 56.3214 141.321C56.5547 141.107 56.7019 140.816 56.7354 140.501C56.7532 140.269 56.7017 140.037 56.5875 139.834C56.4732 139.631 56.3014 139.467 56.0936 139.361C55.8858 139.256 55.6515 139.215 55.4203 139.243C55.1891 139.271 54.9715 139.367 54.7949 139.519C54.3528 139.894 53.9221 140.218 53.4645 140.563L50.6153 142.838C48.3338 144.643 46.0359 146.448 43.5965 148.043L43.7317 147.954C43.6764 147.987 43.623 148.022 43.5717 148.061L43.4248 148.15L43.5559 148.071C42.7924 148.579 41.9862 149.02 41.1462 149.389C40.839 149.521 40.5951 149.767 40.4663 150.075C40.3832 150.265 40.3412 150.47 40.3428 150.678C40.3444 150.885 40.3898 151.09 40.4759 151.278ZM43.5729 148.084L43.5563 148.122L43.5729 148.084Z" fill="#5C5C5C"/>
<path d="M36.7216 145.596C36.5874 145.977 36.6094 146.395 36.7826 146.759C36.9622 147.127 37.2795 147.411 37.6659 147.547C37.8537 147.617 38.0537 147.648 38.2537 147.637C38.4536 147.627 38.6493 147.575 38.8287 147.486C41.4333 145.838 43.9845 144.105 46.5141 142.316L50.1301 139.768C50.7194 139.355 51.3039 138.94 51.8789 138.52L52.8298 137.798L53.1878 137.511C53.3846 137.338 53.5673 137.15 53.7343 136.949C53.9129 136.684 53.9794 136.359 53.9192 136.045C53.8591 135.732 53.6771 135.455 53.4132 135.275C53.2836 135.182 53.1362 135.117 52.9804 135.085C52.8245 135.052 52.6636 135.052 52.5077 135.084C52.3405 135.142 52.1685 135.198 51.9986 135.249L51.5897 135.457C51.3195 135.595 51.0504 135.756 50.7862 135.919C50.2075 136.269 49.6411 136.63 49.0706 137C47.9089 137.749 46.7581 138.525 45.6167 139.306C43.2977 140.885 40.9861 142.473 38.636 143.994L38.9628 143.778C38.4938 144.085 38.0154 144.388 37.539 144.686L37.2073 144.899C37.0294 145.049 36.8885 145.239 36.7956 145.452L36.7457 145.567" fill="#5C5C5C"/>
<path d="M29.6907 143.235C29.7593 143.584 29.9612 143.892 30.2535 144.094C30.3983 144.194 30.5618 144.265 30.7344 144.301C30.9069 144.337 31.085 144.338 31.258 144.305C34.4037 143.377 37.4365 142.103 40.3002 140.504C41.7213 139.721 43.0975 138.883 44.468 137.981C45.8718 137.111 47.218 136.152 48.4985 135.109C48.7224 134.915 48.8689 134.647 48.9111 134.354C48.9532 134.061 48.8881 133.762 48.7278 133.514C48.5675 133.265 48.3227 133.082 48.0385 132.999C47.7542 132.916 47.4496 132.939 47.1807 133.063C45.6557 133.954 44.2147 134.979 42.7352 135.936L43.0283 135.746C39.5269 138.083 35.7478 139.976 31.7783 141.379C31.4481 141.484 31.1199 141.586 30.7842 141.678C30.4373 141.753 30.13 141.952 29.9205 142.239C29.7247 142.534 29.6494 142.894 29.7098 143.243L29.6907 143.235ZM31.533 141.459L31.659 141.417L31.533 141.459Z" fill="#5C5C5C"/>
<path d="M47.186 128.883C47.0726 129.244 47.1044 129.634 47.2747 129.971C47.445 130.308 47.7403 130.565 48.0976 130.688C48.4548 130.81 48.8458 130.788 49.187 130.626C49.5282 130.464 49.7927 130.176 49.9241 129.822C52.0247 123.059 54.67 116.478 57.8339 110.144C63.2041 99.6059 69.9274 89.8145 77.8334 81.0179C81.2621 77.2108 84.8654 73.5895 88.6432 70.1542C92.1547 66.9475 95.8794 63.9814 99.4954 60.8998C105.967 55.3874 112.302 49.691 119.249 44.7554C120.361 43.9623 121.499 43.1913 122.647 42.4478C126.979 39.6154 131.64 37.3212 136.527 35.6158C137.637 35.259 138.758 34.9412 139.886 34.6488C141.169 34.3109 142.462 34.0681 143.726 33.6589C144.028 33.5999 144.302 33.4427 144.505 33.2119C144.709 32.981 144.83 32.6895 144.851 32.3825C144.872 32.0144 144.749 31.6525 144.508 31.3741C144.266 31.0956 143.925 30.9228 143.557 30.8926C141.439 30.8203 139.321 31.0565 137.27 31.5937C135.185 32.0886 133.139 32.7323 131.147 33.5197C127.163 35.1143 123.354 37.1165 119.782 39.4943C112.596 44.144 106.152 49.8158 99.7532 55.4619C98.2151 56.8136 96.6701 58.1681 95.1102 59.5047C93.3064 61.0359 91.5088 62.5529 89.6987 64.0985C85.7891 67.5407 82.0509 71.1675 78.484 74.9788C71.4657 82.4513 65.2901 90.6728 60.0684 99.4949C57.3361 104.147 54.8881 108.961 52.7379 113.909C50.6099 118.8 48.749 123.803 47.1634 128.896" fill="#5C5C5C"/>
<path d="M60.8755 144.114C60.8018 144.324 60.7704 144.546 60.7829 144.769C60.7954 144.991 60.8517 145.209 60.9484 145.409C61.0452 145.61 61.1805 145.789 61.3467 145.937C61.5129 146.085 61.7067 146.199 61.917 146.272C62.1222 146.344 62.3398 146.375 62.5569 146.362C62.774 146.349 62.9864 146.294 63.1819 146.199C77.4072 137.68 90.5428 127.461 102.298 115.768C108.491 109.63 114.235 103.056 119.488 96.0966C124.681 89.2103 129.243 81.8697 133.118 74.1639C136.357 67.7563 138.946 61.0408 140.848 54.1176C141.787 50.6394 142.515 47.1076 143.028 43.5416C143.289 41.7617 143.474 39.9657 143.582 38.1534C143.717 36.3853 143.701 34.609 143.534 32.8436L143.543 32.7055C143.557 32.4084 143.456 32.1173 143.26 31.8932C143.065 31.6691 142.79 31.5295 142.494 31.5037C142.196 31.4831 141.902 31.5813 141.676 31.7766C141.451 31.972 141.311 32.2488 141.289 32.5464C141.272 33.107 141.128 33.6976 141.051 34.266L140.826 35.9802C140.683 37.128 140.538 38.269 140.381 39.4106C140.083 41.5796 139.722 43.7401 139.299 45.8922C137.322 55.3004 134.127 64.4107 129.794 72.9929C123.699 85.0432 115.755 96.0712 106.754 106.122L106.842 106.024L106.569 106.325L106.546 106.378L106.561 106.344C95.3337 118.702 82.6096 129.612 68.6827 138.82C68.0277 139.254 67.3707 139.684 66.7121 140.109C65.0663 141.156 63.407 142.182 61.7341 143.187C61.3723 143.374 61.0817 143.674 60.9067 144.042L60.8547 144.162L60.8755 144.114ZM66.8893 139.976L67.07 139.861L66.8893 139.976ZM106.577 106.306L106.763 106.103L106.564 106.323" fill="#5C5C5C"/>
<path d="M65.5997 90.0629C65.3206 90.8989 65.1067 91.7553 64.96 92.6244C64.695 94.1643 64.6807 95.7369 64.9177 97.2814C65.4266 100.307 66.7649 103.132 68.7838 105.443C70.8613 107.85 73.3903 109.827 76.2278 111.262C79.2644 112.849 82.5528 113.899 85.9474 114.364C89.1707 114.859 92.4602 114.71 95.6256 113.926C98.8216 113.138 101.75 111.512 104.109 109.217C106.696 106.558 108.483 103.224 109.264 99.5975C109.766 97.3719 110.02 95.0975 110.022 92.8158C110.04 91.4716 109.945 90.1124 109.837 88.7585C109.72 87.3767 109.471 86.0092 109.095 84.6744C108.405 82.1716 107.16 79.8563 105.454 77.8999C103.816 76.11 101.811 74.6951 99.5765 73.7521C97.3911 72.834 95.0632 72.3014 92.696 72.1779C90.2222 72.035 87.7406 72.2399 85.3237 72.7867C80.3773 73.8308 75.8136 76.2158 72.1321 79.6804C70.2962 81.431 68.788 83.4957 67.6786 85.777C67.3429 86.3124 67.0311 86.8581 66.7411 87.4191C66.5454 87.8678 66.3069 88.2977 66.1112 88.7464C65.9156 89.1951 65.747 89.5817 65.6184 90.0199L65.5997 90.0629ZM69.9192 87.7651C70.7031 86.4972 71.5944 85.2988 72.5831 84.1832C74.0637 82.5826 75.6768 81.11 77.4054 79.7812C77.5945 79.6342 77.7391 79.4377 77.8233 79.2135C79.5598 78.1778 81.4039 77.3342 83.323 76.6976C85.3669 76.0433 87.4803 75.6302 89.6202 75.4667C91.4694 75.3624 93.3246 75.4826 95.1449 75.8248C96.5336 76.125 97.8827 76.5855 99.1651 77.1971C100.204 77.7458 101.178 78.4105 102.067 79.1785C102.878 79.94 103.599 80.7918 104.215 81.7172C104.848 82.7433 105.364 83.8372 105.753 84.9782C106.286 86.789 106.603 88.6566 106.696 90.5419C106.861 93.1356 106.708 95.7398 106.241 98.2965C105.899 99.9525 105.357 101.561 104.629 103.087C104.004 104.294 103.238 105.423 102.345 106.448C101.504 107.342 100.566 108.139 99.5483 108.825C98.3696 109.559 97.1096 110.153 95.7935 110.596C94.208 111.076 92.5727 111.374 90.9195 111.482C88.8254 111.581 86.727 111.429 84.6691 111.029C82.3144 110.537 80.0313 109.75 77.8741 108.685C76.0472 107.755 74.3418 106.603 72.7967 105.256C71.6531 104.215 70.6393 103.041 69.7773 101.757C69.255 100.916 68.811 100.028 68.451 99.106C68.6821 98.9754 68.8663 98.7754 68.9775 98.5344C69.0887 98.2933 69.1214 98.0234 69.0707 97.7628C68.856 96.8251 68.7169 95.8716 68.6551 94.9116C68.5888 93.5531 68.6793 92.1915 68.9247 90.8537C69.153 89.7973 69.483 88.7654 69.9102 87.7726L69.9192 87.7651ZM72.6486 84.0981L72.7436 83.9975L72.6486 84.0981ZM89.6283 75.4872C89.7213 75.4824 89.8164 75.4727 89.9142 75.4699C89.8191 75.4796 89.7261 75.4844 89.6283 75.4872ZM98.9202 77.1074C98.9584 77.1241 98.9966 77.1407 99.03 77.1553C99.0634 77.1698 98.9584 77.1241 98.9202 77.1074Z" fill="#5C5C5C"/>
<path d="M76.8927 90.9365C76.4547 93.3446 76.7212 95.8279 77.6602 98.0882C78.5698 100.31 80.0313 102.263 81.9063 103.762C83.7152 105.243 85.9129 106.17 88.2357 106.431C89.3968 106.554 90.5705 106.47 91.702 106.182C92.3269 106.023 92.9375 105.812 93.5275 105.552C94.1863 105.246 94.8165 104.882 95.4107 104.464C96.6072 103.617 97.6648 102.589 98.5458 101.417C99.5207 100.175 100.264 98.7669 100.739 97.2608C101.196 95.7645 101.363 94.195 101.233 92.6361C101.113 91.2313 100.765 89.8554 100.203 88.5625C99.639 87.2634 98.8847 86.0556 97.9646 84.9791C97.0411 83.8963 95.9657 82.9528 94.7718 82.1782C92.7666 80.8469 90.4329 80.0948 88.0277 80.0045C86.8232 79.9664 85.6206 80.1273 84.4684 80.4805C83.8054 80.6757 83.1608 80.9288 82.5422 81.237C81.9149 81.5702 81.3151 81.9526 80.7483 82.3807C80.5059 82.5876 80.3382 82.8685 80.2712 83.18C80.2041 83.4916 80.2413 83.8165 80.3771 84.1049C80.3933 84.1438 80.4132 84.181 80.4366 84.216C79.6289 85.0698 78.9232 86.0146 78.3341 87.0316C78.1138 87.4225 77.9138 87.8246 77.735 88.2361C77.3564 89.1082 77.0719 90.0183 76.8865 90.9508L76.8927 90.9365ZM80.7601 88.9984C81.231 88.1135 81.8018 87.2854 82.4611 86.5304C82.6532 86.3244 82.8458 86.13 83.0543 85.9255C83.2924 85.7234 83.4633 85.4535 83.5442 85.1517C83.625 84.85 83.6119 84.5308 83.5066 84.2367C83.7164 84.1464 83.9269 84.0677 84.14 83.9959C84.8746 83.7769 85.6298 83.634 86.3936 83.5697C87.198 83.5426 88.0031 83.6004 88.7954 83.742C89.6691 83.9461 90.5182 84.2439 91.328 84.6304C92.1934 85.083 93.0072 85.6283 93.7548 86.2567C94.4925 86.9485 95.153 87.7184 95.7246 88.5529C96.2086 89.3333 96.6086 90.1628 96.918 91.0274C97.1304 91.7587 97.2713 92.5089 97.3388 93.2674C97.3612 93.9887 97.3092 94.7104 97.1838 95.421C97.0069 96.1756 96.7516 96.9096 96.4219 97.6111C95.9311 98.5131 95.3464 99.3606 94.6775 100.139C94.0999 100.76 93.4558 101.316 92.7566 101.796C92.224 102.119 91.661 102.389 91.0756 102.602C90.524 102.764 89.9579 102.871 89.3854 102.922C88.7598 102.943 88.1336 102.899 87.5174 102.789C86.8112 102.627 86.1247 102.388 85.4698 102.078C84.699 101.667 83.9755 101.172 83.3122 100.603C82.6064 99.9415 81.9757 99.2035 81.4313 98.4032C80.958 97.6408 80.5712 96.8281 80.2779 95.9801C80.0375 95.1902 79.8837 94.3765 79.8193 93.5533C79.794 92.7819 79.8488 92.01 79.9828 91.2499C80.1658 90.4662 80.4298 89.7036 80.7705 88.9745" fill="#5C5C5C"/>
<path d="M30.5064 104.289C32.0249 106.161 33.3677 108.15 34.7942 110.09C36.2206 112.03 37.733 114.007 39.2203 115.951C42.197 119.834 45.2137 123.677 48.112 127.622C48.3025 127.853 48.558 128.021 48.8453 128.105C49.1326 128.189 49.4385 128.185 49.7234 128.093C50.0083 128.001 50.2591 127.826 50.4432 127.59C50.6273 127.354 50.7363 127.068 50.7561 126.769C50.7772 126.381 50.6523 125.998 50.4059 125.696C47.7244 122.062 44.9577 118.492 42.2157 114.905C39.5409 111.398 36.8375 107.879 34.3971 104.173C34.7849 104.053 35.1733 103.943 35.5679 103.82C36.7393 103.479 37.9298 103.146 39.1028 102.879C41.5018 102.289 43.9295 101.802 46.3585 101.339C48.7874 100.875 51.2782 100.479 53.7134 100.001C54.9428 99.7869 56.1424 99.5373 57.3422 99.2481C58.5633 98.9699 59.7622 98.6022 60.9293 98.1479C61.1983 98.0337 61.4205 97.8314 61.5591 97.5741C61.6978 97.3168 61.7447 97.02 61.6921 96.7325C61.6395 96.4451 61.4906 96.1841 61.2699 95.9925C61.0492 95.8009 60.7698 95.6902 60.4778 95.6787C59.2253 95.6896 57.9745 95.774 56.7319 95.9314C55.503 96.0659 54.2737 96.2401 53.0547 96.43C50.6105 96.8242 48.1579 97.2376 45.6887 97.6891C43.2195 98.1406 40.8353 98.6576 38.4417 99.2614C37.257 99.5553 36.0808 99.8813 34.9134 100.24C33.6095 100.616 32.3259 101.06 31.0677 101.568C30.6956 101.727 30.3994 102.023 30.2413 102.395C30.1113 102.699 30.066 103.032 30.1103 103.36C30.1546 103.687 30.2868 103.996 30.4929 104.255" fill="#5C5C5C"/>
<path d="M61.8394 142.215L61.9777 142.628C62.1061 142.902 62.3062 143.136 62.5567 143.306C68.8671 148.898 75.0034 154.863 82.2885 159.21C82.6645 159.457 83.1205 159.552 83.5641 159.476C84.0081 159.389 84.4009 159.132 84.6599 158.761C88.23 154.182 90.3783 148.643 91.794 143.051C92.5385 140.079 93.1137 137.068 93.517 134.031C93.9099 131.146 94.1334 128.241 94.1864 125.33C94.2029 125.087 94.1475 124.844 94.027 124.632C93.9065 124.419 93.7262 124.247 93.5087 124.137C93.2911 124.026 93.0459 123.982 92.8034 124.009C92.561 124.037 92.332 124.136 92.145 124.292C91.8946 124.515 91.7375 124.824 91.7054 125.157C90.9742 129.44 90.4165 133.742 89.572 137.998C88.6899 142.698 87.213 147.268 85.1767 151.596C84.4786 152.957 83.6898 154.27 82.8155 155.526C76.155 151.258 70.3845 145.731 64.4774 140.491C64.2948 140.361 64.0871 140.27 63.8675 140.224C63.6479 140.178 63.4213 140.178 63.2018 140.225C62.7584 140.309 62.3659 140.564 62.108 140.935C62.0587 141.029 62.0162 141.126 61.9811 141.226C61.8436 141.54 61.8025 141.888 61.8633 142.226L61.8394 142.215ZM85.2345 151.541L85.3198 151.346L85.2345 151.541Z" fill="#5C5C5C"/>
<path d="M8.60213 162.223C8.68413 162.392 8.79875 162.543 8.93937 162.668C9.07998 162.793 9.24383 162.888 9.42153 162.949C9.76989 163.064 10.1486 163.042 10.4818 162.889C12.7781 161.987 14.9984 160.882 17.2326 159.862C18.781 159.151 20.3375 158.461 21.9285 157.848C21.7066 158.109 21.4821 158.363 21.2528 158.615L21.5393 158.297C19.9018 160.111 18.2101 161.868 16.6162 163.712C15.0699 165.43 13.7381 167.329 12.6503 169.368C12.494 169.596 12.401 169.861 12.3806 170.137C12.3603 170.412 12.4134 170.688 12.5345 170.936C12.6546 171.19 12.8408 171.407 13.0735 171.563C13.2422 171.685 13.4345 171.77 13.638 171.813C13.8414 171.855 14.0516 171.855 14.2549 171.812C15.3163 171.491 16.3516 171.09 17.3518 170.611C18.3204 170.127 19.2508 169.57 20.1349 168.944C21.7814 167.774 23.2913 166.422 24.6363 164.914C25.0067 164.507 25.3503 164.123 25.7213 163.728C24.7753 165.207 23.8149 166.68 22.8954 168.177C21.8519 169.869 20.9005 171.616 20.0454 173.41C19.1507 175.287 18.4474 177.249 17.9463 179.267C17.9227 179.343 17.9241 179.425 17.9504 179.501C17.9767 179.576 18.0265 179.641 18.0924 179.686C18.1583 179.732 18.237 179.755 18.3169 179.752C18.3968 179.749 18.4737 179.721 18.5365 179.672C19.454 178.936 20.3383 178.145 21.1948 177.314C22.0514 176.484 22.9602 175.494 23.8086 174.551C25.488 172.693 27.0843 170.765 28.7611 168.899C29.409 168.182 30.0713 167.471 30.7511 166.785L30.5971 167.138C30.2227 168.179 29.8556 169.225 29.4957 170.276C28.7595 172.421 28.0546 174.585 27.3389 176.721C27.2638 176.942 27.2472 177.178 27.2907 177.407C27.3342 177.636 27.4363 177.85 27.5871 178.028C27.7774 178.255 28.038 178.412 28.3276 178.475C28.6172 178.537 28.9193 178.502 29.1863 178.373C29.6428 178.095 30.0891 177.801 30.5307 177.505C30.9751 177.203 31.3986 176.871 31.7985 176.513C32.6656 175.745 33.4832 174.923 34.2462 174.052C35.7156 172.369 37.0512 170.573 38.241 168.681C39.4736 166.753 40.5858 164.75 41.6671 162.739C42.7485 160.728 43.7673 158.769 44.7885 156.766L44.9383 156.422C45.0165 156.193 45.0356 155.947 44.9941 155.708C44.9413 155.437 44.8099 155.188 44.6163 154.991C44.4227 154.794 44.1754 154.659 43.9053 154.601C43.6352 154.544 43.3542 154.568 43.0974 154.669C42.8406 154.771 42.6194 154.946 42.4613 155.172C40.6228 158.086 39.0732 161.171 37.3552 164.16C35.6952 167.167 33.7368 169.999 31.5098 172.615L31.0217 173.135C31.2022 172.486 31.3875 171.84 31.5775 171.196C31.8899 170.127 32.2097 169.068 32.5316 168.004C32.7026 167.443 32.8805 166.878 33.0468 166.314C33.2338 165.77 33.3784 165.212 33.4792 164.645L33.6421 163.972C33.7005 163.805 33.7022 163.622 33.6467 163.454C33.5913 163.285 33.4818 163.14 33.3353 163.04C33.1888 162.94 33.0135 162.891 32.8363 162.9C32.6591 162.91 32.4901 162.978 32.3553 163.093C30.5507 164.965 28.8487 166.927 27.1835 168.922C25.4632 170.978 23.7891 173.071 22.0028 175.071L22.0257 175.018C21.0232 176.132 19.9872 177.231 18.9058 178.265C19.4458 176.338 20.1782 174.471 21.0919 172.691C22.6474 169.787 24.3592 166.97 26.22 164.252C27.1506 162.835 28.0737 161.408 28.9683 159.969L29.9827 158.281C30.6777 157.351 31.3633 156.417 32.0271 155.468C32.1528 155.317 32.2638 155.154 32.3583 154.982C32.4999 154.769 32.5695 154.517 32.557 154.262C32.5444 154.007 32.4503 153.763 32.2886 153.565C32.0888 153.331 31.8052 153.185 31.4986 153.157C31.1919 153.13 30.8868 153.223 30.6485 153.418C29.3222 154.756 28.0797 156.174 26.928 157.664C25.7388 159.089 24.5953 160.539 23.3689 161.918C21.9502 163.505 20.3721 164.941 18.6594 166.205C19.2141 165.532 19.8049 164.881 20.3745 164.226L20.0832 164.542C21.3922 163.09 22.7331 161.67 24.0326 160.214C25.3261 158.823 26.501 157.327 27.5452 155.741C27.695 155.513 27.7837 155.25 27.8029 154.978C27.8221 154.706 27.7711 154.433 27.6548 154.187C27.507 153.874 27.2598 153.62 26.952 153.463C26.6442 153.306 26.2931 153.256 25.9536 153.32C24.8161 153.627 23.6957 153.977 22.5924 154.371C25.2535 152.645 27.9269 150.931 30.5522 149.144C30.6922 149.031 30.8067 148.89 30.8884 148.73C30.97 148.57 31.0168 148.394 31.0258 148.214C31.0459 147.866 30.9337 147.523 30.7118 147.254C30.5958 147.117 30.4535 147.005 30.2934 146.925C30.1334 146.844 29.9588 146.797 29.78 146.785C29.4324 146.77 29.0913 146.882 28.8194 147.099C25.5718 149.336 22.1936 151.442 18.8767 153.603C17.1877 154.701 15.5089 155.816 13.8504 156.961C12.1919 158.107 10.5611 159.294 8.95756 160.509C8.79341 160.633 8.6646 160.798 8.58392 160.988C8.5028 161.178 8.46194 161.382 8.46394 161.588C8.46594 161.794 8.51078 161.998 8.59556 162.186L8.60213 162.223ZM28.7088 168.837L28.7276 168.794L28.7088 168.837Z" fill="#DE9A16"/>
<path d="M71.1326 98.4959C71.2387 98.7187 71.3878 98.9182 71.5714 99.0831C71.755 99.2479 71.9693 99.3749 72.2022 99.4565C72.6608 99.6102 73.161 99.5822 73.5997 99.3784C74.0456 99.1558 74.3899 98.7716 74.5623 98.304C74.6432 98.0777 74.6779 97.8374 74.6645 97.5974C74.6511 97.3575 74.5898 97.1226 74.4843 96.9067C74.2712 96.4671 73.8938 96.1291 73.4336 95.9656C72.9734 95.8021 72.4673 95.8264 72.0247 96.0331C71.5782 96.2547 71.2336 96.6392 71.0621 97.1074C70.9823 97.3337 70.9487 97.5738 70.9633 97.8133C70.9779 98.0529 71.0404 98.2871 71.147 98.5021" fill="#5C5C5C"/>
<path d="M72.6266 88.3485C72.7583 88.6263 72.9435 88.8754 73.1715 89.0815C73.3995 89.2876 73.6659 89.4467 73.9555 89.5498C74.2451 89.6528 74.5522 89.6978 74.8592 89.682C75.1662 89.6663 75.4671 89.5902 75.7446 89.458C76.3049 89.1769 76.7372 88.6932 76.9538 88.1049C77.0544 87.8215 77.0972 87.5208 77.0798 87.2205C77.0625 86.9203 76.9852 86.6265 76.8526 86.3566C76.5865 85.7963 76.1091 85.3643 75.525 85.1554C74.9409 84.9466 74.2979 84.9778 73.7368 85.2422C73.1755 85.5249 72.7425 86.0103 72.5255 86.6002C72.4255 86.8837 72.3829 87.1843 72.4003 87.4845C72.4176 87.7847 72.4946 88.0784 72.6266 88.3485Z" fill="#5C5C5C"/>
<path d="M86.417 77.4609C86.5381 77.7174 86.7086 77.9475 86.9188 78.138C87.129 78.3285 87.3747 78.4757 87.6418 78.5711C87.909 78.6664 88.1923 78.7081 88.4756 78.6938C88.7589 78.6794 89.0366 78.6094 89.2927 78.4875C89.8103 78.2274 90.2089 77.7793 90.4069 77.235C90.5014 76.9717 90.542 76.6922 90.5261 76.413C90.5102 76.1338 90.4383 75.8606 90.3146 75.6098C90.1935 75.3532 90.023 75.1231 89.8129 74.9326C89.6027 74.7421 89.357 74.595 89.0898 74.4996C88.8227 74.4042 88.5394 74.3625 88.2561 74.3768C87.9728 74.3912 87.695 74.4613 87.4389 74.5831C86.9213 74.8432 86.5227 75.2913 86.3247 75.8356C86.2302 76.0988 86.1896 76.3784 86.2055 76.6576C86.2214 76.9369 86.2933 77.2101 86.417 77.4609Z" fill="#5C5C5C"/>
<path d="M97.3891 81.705C97.8376 81.8534 98.3259 81.8245 98.7537 81.6241C99.1885 81.4058 99.5233 81.0294 99.6896 80.5721C99.8044 80.235 99.8174 79.8716 99.7268 79.5272C99.6363 79.1828 99.4464 78.8727 99.1806 78.6357C98.9149 78.3986 98.5852 78.2451 98.2328 78.1943C97.8803 78.1435 97.5208 78.1976 97.1989 78.3499C96.7648 78.5691 96.4302 78.9452 96.263 79.4019C96.1081 79.8567 96.1397 80.3543 96.3507 80.7859C96.5617 81.2175 96.9351 81.5479 97.3891 81.705Z" fill="#5C5C5C"/>
<path d="M100.552 94.0362C100.697 94.3502 100.904 94.632 101.159 94.8653C101.415 95.0986 101.714 95.2786 102.04 95.3948C102.366 95.511 102.712 95.5611 103.058 95.5421C103.403 95.5231 103.741 95.4354 104.053 95.2842C104.68 94.9685 105.164 94.4263 105.407 93.7672C105.522 93.4468 105.572 93.1067 105.553 92.7668C105.534 92.4269 105.448 92.0942 105.298 91.7883C104.998 91.1599 104.462 90.6759 103.806 90.4421C103.15 90.2082 102.428 90.2435 101.798 90.5403C101.169 90.8571 100.684 91.4011 100.441 92.0621C100.326 92.3817 100.277 92.7212 100.296 93.0604C100.315 93.3995 100.402 93.7314 100.552 94.0362Z" fill="#5C5C5C"/>
<path d="M98.4262 103.313C98.5535 103.575 98.7319 103.81 98.9511 104.003C99.1703 104.197 99.4257 104.344 99.7025 104.437C100.245 104.621 100.837 104.588 101.356 104.346C101.88 104.076 102.282 103.619 102.483 103.065C102.578 102.796 102.618 102.511 102.602 102.227C102.585 101.943 102.512 101.665 102.386 101.409C102.265 101.144 102.091 100.906 101.876 100.708C101.661 100.511 101.408 100.359 101.134 100.261C100.859 100.163 100.567 100.121 100.276 100.137C99.9842 100.153 99.699 100.228 99.4369 100.356C98.9127 100.625 98.5101 101.083 98.3102 101.637C98.2154 101.905 98.1753 102.189 98.1922 102.473C98.2091 102.756 98.2827 103.033 98.4085 103.288" fill="#5C5C5C"/>
<path d="M88.4015 112.179C88.5441 112.477 88.7444 112.744 88.991 112.963C89.2376 113.183 89.5254 113.351 89.8376 113.459C90.4488 113.664 91.1153 113.627 91.7002 113.356C92.2944 113.058 92.7521 112.545 92.9797 111.92C93.087 111.618 93.1328 111.297 93.1144 110.977C93.096 110.657 93.0137 110.343 92.8724 110.055C92.5905 109.463 92.0848 109.007 91.4667 108.788C90.8487 108.568 90.1687 108.603 89.5765 108.885C88.984 109.182 88.5271 109.694 88.299 110.317C88.1916 110.618 88.1452 110.938 88.1628 111.258C88.1804 111.578 88.2616 111.891 88.4015 112.179Z" fill="#5C5C5C"/>
<path d="M74.4181 107.076C74.5511 107.36 74.739 107.614 74.9709 107.825C75.2028 108.036 75.4742 108.199 75.7694 108.304C76.0646 108.41 76.3777 108.456 76.6907 108.44C77.0038 108.424 77.3105 108.346 77.5933 108.21C78.1663 107.925 78.6078 107.43 78.8266 106.828C78.9303 106.538 78.9749 106.229 78.9579 105.922C78.9409 105.614 78.8627 105.312 78.7278 105.035C78.4562 104.464 77.9689 104.024 77.3731 103.812C76.7773 103.601 76.1217 103.634 75.5505 103.905C74.9765 104.19 74.5334 104.684 74.3124 105.286C74.2094 105.576 74.1656 105.884 74.1837 106.191C74.2019 106.499 74.2816 106.8 74.4181 107.076Z" fill="#5C5C5C"/>
</svg>
