<svg width="100" height="100" viewBox="0 0 100 100" fill="none" xmlns="http://www.w3.org/2000/svg">
<rect width="100" height="100" rx="10" fill="url(#paint0_linear_947_1506)"/>
<path d="M37 43C37 40.2386 39.2386 38 42 38C44.7614 38 47 40.2386 47 43V58C47 60.7614 44.7614 63 42 63C39.2386 63 37 60.7614 37 58V43Z" fill="white"/>
<path d="M37 58C37 55.2386 39.2386 53 42 53H57C59.7614 53 62 55.2386 62 58C62 60.7614 59.7614 63 57 63H42C39.2386 63 37 60.7614 37 58Z" fill="white"/>
<path d="M74.9426 40.7C76.4847 38.0466 80.3171 38.0466 81.8592 40.7L91.2542 56.8647C92.804 59.5313 90.8802 62.8747 87.7958 62.8747H69.006C65.9217 62.8747 63.9978 59.5313 65.5477 56.8647L74.9426 40.7Z" fill="white"/>
<path d="M17.0636 55.0281C18.1683 55.3227 19.4098 54.9781 19.971 54.3865C20.4488 53.8826 20.7912 52.8424 20.0562 52.1073C19.4271 51.4782 18.3445 51.6666 17.8063 52.3394C17.4715 52.7578 17.4459 53.1927 17.419 53.6493C17.3931 54.0875 17.3661 54.5456 17.0636 55.0281Z" fill="white"/>
<path d="M20.7167 50.4182C20.4213 50.8036 20.1848 51.1255 20.0339 51.3341C20.3807 51.5176 20.6613 51.8094 20.8426 52.1351C21.0439 51.9785 21.3544 51.7334 21.7261 51.4277L20.7167 50.4182Z" fill="white"/>
<path d="M22.2004 51.0319C23.1839 50.1993 26.0647 47.6765 26.1338 46.3844C26.1516 46.0508 25.9224 45.8328 25.5768 45.8692C24.2815 46.0054 21.9066 48.9042 21.0974 49.9288L22.2004 51.0319Z" fill="white"/>
<path fill-rule="evenodd" clip-rule="evenodd" d="M21.5 63C28.4036 63 34 57.4036 34 50.5C34 43.5964 28.4036 38 21.5 38C14.5964 38 9 43.5964 9 50.5C9 57.4036 14.5964 63 21.5 63ZM23.568 46.3331C24.3477 45.6648 24.9838 45.3129 25.5124 45.2573C26.2347 45.1814 26.7862 45.7068 26.7481 46.4173C26.7199 46.9447 26.394 47.5927 25.7518 48.3982C24.592 49.8528 22.5439 51.606 21.0615 52.7435C21.2001 53.4863 20.9243 54.2754 20.4174 54.8099C19.5879 55.6845 17.8197 56.0535 16.4365 55.4614C16.2397 55.3771 16.1872 55.1221 16.3344 54.9668C16.7523 54.5262 16.7803 54.0591 16.81 53.564C16.8404 53.0574 16.8726 52.5216 17.3259 51.955C17.8142 51.3446 18.639 51.0099 19.4215 51.132C20.4933 49.6299 22.1573 47.5422 23.568 46.3331Z" fill="white"/>
<defs>
<linearGradient id="paint0_linear_947_1506" x1="-66" y1="-50" x2="156" y2="120" gradientUnits="userSpaceOnUse">
<stop stop-color="#DD55FF"/>
<stop offset="1" stop-color="#FFB800"/>
</linearGradient>
</defs>
</svg>
